<?xml version="1.0" encoding="utf-8"?>
<!-- Generator: Adobe Illustrator 23.0.3, SVG Export Plug-In . SVG Version: 6.00 Build 0)  -->
<svg version="1.1" id="Layer_1" xmlns="http://www.w3.org/2000/svg" xmlns:xlink="http://www.w3.org/1999/xlink" x="0px" y="0px"
	 viewBox="0 0 32 32" style="enable-background:new 0 0 32 32;" xml:space="preserve">
<style type="text/css">
	.st0{fill:#DE3935;}
</style>
<g>
	<path d="M19.7,1.3c1.1,0,2.1,0.4,2.7,1.2c0.6,0.8,0.8,1.9,0.5,3.1c0,0.1-0.1,0.2-0.1,0.3h1.4c0.4-1.6,0.1-3.1-0.8-4.2
		C22.6,0.6,21.3,0,19.7,0c-3.1,0-6.2,2.5-7,5.6c0,0.1,0,0.2-0.1,0.3H14C14.6,3.4,17.2,1.3,19.7,1.3z"/>
	<path class="st0" d="M23.7,26.8H3.3L8.5,5.9h20.4L23.7,26.8z M8.6,22.7h11.9L23.6,10H11.7L8.6,22.7z"/>
	<rect x="20.3" y="18" transform="matrix(0.8 -0.6 0.6 0.8 -10.5908 18.4408)" class="st0" width="4.1" height="14.2"/>
	<circle cx="13.1" cy="7.7" r="0.4"/>
	<circle cx="23.1" cy="7.7" r="0.4"/>
</g>
</svg>
