<?xml version="1.0" encoding="utf-8"?>
<!-- Generator: Adobe Illustrator 23.0.3, SVG Export Plug-In . SVG Version: 6.00 Build 0)  -->
<svg version="1.1" id="Layer_1" xmlns="http://www.w3.org/2000/svg" xmlns:xlink="http://www.w3.org/1999/xlink" x="0px" y="0px"
	 viewBox="0 0 160 64" style="enable-background:new 0 0 160 64;" xml:space="preserve">
<style type="text/css">
	.st0{fill:#DE3935;}
</style>
<path d="M26.1,9.2c1.7,0,3.1,0.6,4,1.8c1,1.2,1.2,2.9,0.8,4.6c0,0.1-0.1,0.3-0.1,0.4h2c0.6-2.4,0.1-4.6-1.2-6.3
	c-1.3-1.6-3.3-2.5-5.6-2.5c-4.6,0-9.3,3.8-10.4,8.4c0,0.1-0.1,0.3-0.1,0.4h2C18.6,12.3,22.4,9.2,26.1,9.2z"/>
<path class="st0" d="M32.1,47.1H1.8l7.7-31h30.3L32.1,47.1z M9.6,41h17.8L32,22.1H14.2L9.6,41z"/>
<g>
	<path d="M45.3,31.5l3.9-15.6h23.4l-1.9,7.8h-7.9l1-3.9h-7.8l-2,7.8h15.6l-4.9,19.5H41.4l2.9-11.7h7.8l-2,7.8H58l2.9-11.7H45.3z"/>
	<path d="M101.7,15.9l-7.8,31.2h-7.8l3.9-15.6h-7.8l-3.9,15.6h-7.8l7.8-31.2h7.8l-2.9,11.7H91l2.9-11.7H101.7z"/>
	<path d="M99.7,47.1l7.8-31.2h23.4l-7.8,31.2H99.7z M114.3,19.7l-5.9,23.4h7.9l5.8-23.4H114.3z"/>
	<path d="M128.8,47.1l7.8-31.2H160l-3.9,15.6h-15.6l-3.9,15.6H128.8z M141.5,27.5h7.8l2-7.8h-7.8L141.5,27.5z"/>
</g>
<rect x="27" y="34" transform="matrix(0.8 -0.6 0.6 0.8 -20.7337 26.9609)" class="st0" width="6.1" height="21.1"/>
<circle cx="16.2" cy="18.7" r="0.5"/>
<circle cx="31.1" cy="18.7" r="0.5"/>
</svg>
